<?xml version="1.0" encoding="UTF-8" standalone="no"?>
<!DOCTYPE svg PUBLIC "-//W3C//DTD SVG 1.1//EN" "http://www.w3.org/Graphics/SVG/1.1/DTD/svg11.dtd">
<svg width="100%" height="100%" viewBox="0 0 634 634" version="1.1" xmlns="http://www.w3.org/2000/svg" xmlns:xlink="http://www.w3.org/1999/xlink" xml:space="preserve" xmlns:serif="http://www.serif.com/" style="fill-rule:evenodd;clip-rule:evenodd;stroke-linejoin:round;stroke-miterlimit:2;">
    <g transform="matrix(1,0,0,1,-16.6149,-10.0187)">
        <g id="Artboard1" transform="matrix(0.340588,0,0,0.551425,0,0)">
            <rect x="0" y="0" width="1920" height="1200" style="fill:none;"/>
            <g transform="matrix(2.07613,1.28233,-2.07613,1.28233,1165.75,-405.291)">
                <path d="M587.828,258.498C587.828,220.804 557.226,190.202 519.532,190.202L168.296,190.202C130.602,190.202 100,220.804 100,258.498L100,609.734C100,647.428 130.602,678.03 168.296,678.03L519.532,678.03C557.226,678.03 587.828,647.428 587.828,609.734L587.828,258.498Z" style="fill:url(#_Linear1);"/>
            </g>
        </g>
    </g>
    <defs>
        <linearGradient id="_Linear1" x1="0" y1="0" x2="1" y2="0" gradientUnits="userSpaceOnUse" gradientTransform="matrix(300.475,-300.475,300.475,300.475,244.468,533.562)"><stop offset="0" style="stop-color:white;stop-opacity:1"/><stop offset="0.51" style="stop-color:rgb(255,202,207);stop-opacity:1"/><stop offset="1" style="stop-color:rgb(255,38,56);stop-opacity:1"/></linearGradient>
    </defs>
</svg>
